<svg width="20" height="20" viewBox="0 0 20 20" fill="#000000" xmlns="http://www.w3.org/2000/svg">
<path d="M11.3333 2C10.9797 2 10.6406 2.13486 10.3905 2.3749C10.1405 2.61495 10 2.94052 10 3.28V3.92H0V16.08H2.104C2.40133 17.1802 3.432 18 4.66667 18C5.90133 18 6.932 17.1802 7.22933 16.08H12.7707C13.068 17.1802 14.0987 18 15.3333 18C16.568 18 17.5987 17.1802 17.896 16.08H20V8.8L19.8333 8.62016L15.8333 4.14016L15.646 3.92H12.6667V3.28C12.6667 2.94052 12.5262 2.61495 12.2761 2.3749C12.0261 2.13486 11.687 2 11.3333 2ZM1.33333 5.2H15.0207L18.6667 9.28V14.8H17.896C17.5987 13.6998 16.568 12.88 15.3333 12.88C14.0987 12.88 13.068 13.6998 12.7707 14.8H7.22933C6.932 13.6998 5.90133 12.88 4.66667 12.88C3.432 12.88 2.40133 13.6998 2.104 14.8H1.33333V5.2ZM8.66667 7.12V9.04H6.66667V10.32H8.66667V12.24H10V10.32H12V9.04H10V7.12H8.66667ZM4.66667 14.16C5.41133 14.16 6 14.7251 6 15.44C6 16.1549 5.41133 16.72 4.66667 16.72C3.922 16.72 3.33333 16.1549 3.33333 15.44C3.33333 14.7251 3.922 14.16 4.66667 14.16ZM15.3333 14.16C16.078 14.16 16.6667 14.7251 16.6667 15.44C16.6667 16.1549 16.078 16.72 15.3333 16.72C14.5887 16.72 14 16.1549 14 15.44C14 14.7251 14.5887 14.16 15.3333 14.16Z" fill="white"/>
</svg>
