<svg width="20" height="20" viewBox="0 0 20 20" fill="none" xmlns="http://www.w3.org/2000/svg">
<g clip-path="url(#clip0_1348_386)">
<path fill-rule="evenodd" clip-rule="evenodd" d="M1.08929 6.99303C1.31957 5.32316 2.45093 4.29512 3.85457 3.48767C4.29436 3.23468 4.81684 3.16911 5.30612 3.30288C5.79503 3.43654 6.21088 3.75811 6.46417 4.19523L7.08839 5.27249C7.34168 5.70961 7.41326 6.22922 7.28499 6.71792C7.15661 7.20699 6.83838 7.62504 6.39859 7.87803C5.96698 8.12632 5.75371 8.39156 5.64662 8.63309C5.53714 8.87998 5.51151 9.16381 5.55975 9.48797C5.66095 10.168 6.05696 10.8669 6.38041 11.4251C6.70386 11.9833 7.11336 12.6745 7.65382 13.1018C7.91145 13.3055 8.17097 13.4253 8.44031 13.4543C8.70378 13.4827 9.04096 13.4313 9.47257 13.183C9.91236 12.93 10.4348 12.8644 10.9241 12.9982C11.413 13.1318 11.8289 13.4534 12.0822 13.8905L12.7064 14.9678C12.9597 15.4049 13.0313 15.9245 12.903 16.4132C12.7746 16.9023 12.4564 17.3203 12.0166 17.5733C10.613 18.3808 9.15372 18.843 7.58716 18.2068C6.08722 17.5976 4.6553 16.0399 3.08101 13.3231C1.50673 10.6063 0.868799 8.59187 1.08929 6.99303ZM2.4195 7.17514C2.26348 8.30648 2.697 9.98474 4.24383 12.6542C5.79066 15.3236 7.03262 16.5369 8.09397 16.9679C9.08869 17.3719 10.0781 17.1436 11.3452 16.4147C11.4721 16.3418 11.5658 16.2202 11.604 16.0747C11.6423 15.9289 11.6214 15.771 11.5436 15.6367L10.9193 14.5595C10.8415 14.4252 10.7147 14.3282 10.5688 14.2883C10.4233 14.2485 10.2708 14.2686 10.1439 14.3416C9.50725 14.7078 8.88715 14.848 8.29612 14.7844C7.71095 14.7214 7.21874 14.4657 6.81916 14.1498C6.06088 13.5502 5.53981 12.6504 5.23615 12.1261C5.22987 12.1152 5.22368 12.1046 5.21759 12.094C5.2115 12.0835 5.20531 12.0728 5.19902 12.062C4.89508 11.5378 4.37356 10.6383 4.23156 9.68421C4.15674 9.18144 4.18058 8.62887 4.41843 8.09245C4.65866 7.55067 5.09056 7.08569 5.72724 6.71944C5.8541 6.64646 5.94778 6.5249 5.98597 6.37943C6.02425 6.23358 6.00339 6.0757 5.92557 5.9414L5.30135 4.86415C5.22353 4.72985 5.09673 4.63291 4.95082 4.59302C4.80529 4.55323 4.65278 4.57329 4.52592 4.64627C3.25883 5.37516 2.56572 6.11482 2.4195 7.17514Z" fill="white"/>
<path fill-rule="evenodd" clip-rule="evenodd" d="M11.3523 1.96472C11.4506 1.60851 11.8201 1.39914 12.1776 1.49708C14.5159 2.13767 16.5123 3.67912 17.7304 5.78117C18.9484 7.88321 19.29 10.3767 18.6777 12.7146C18.584 13.072 18.2173 13.2862 17.8585 13.1929C17.4998 13.0996 17.2848 12.7342 17.3785 12.3768C17.901 10.3815 17.6102 8.24951 16.5676 6.45008C15.5249 4.65065 13.8172 3.33373 11.8216 2.78704C11.4641 2.68909 11.254 2.32093 11.3523 1.96472ZM10.494 5.23459C10.592 4.87831 10.9614 4.66866 11.319 4.76634C12.0478 4.96542 12.7313 5.30593 13.3306 5.76803C13.9299 6.23012 14.4335 6.80491 14.8128 7.45952C15.1921 8.11414 15.4399 8.83606 15.5419 9.58422C15.6439 10.3324 15.5981 11.0924 15.4067 11.8208C15.3129 12.1782 14.946 12.3921 14.5873 12.2986C14.2286 12.205 14.0139 11.8395 14.1078 11.4821C14.2545 10.9236 14.2899 10.3399 14.2114 9.7643C14.1329 9.1887 13.9422 8.63278 13.65 8.12844C13.3577 7.6241 12.9699 7.18155 12.5088 6.82604C12.0478 6.47054 11.5227 6.20919 10.964 6.05656C10.6064 5.95888 10.396 5.59088 10.494 5.23459ZM9.65048 8.49145C9.74886 8.13526 10.1184 7.92597 10.4759 8.02399C11.0807 8.18983 11.5956 8.58808 11.9095 9.12967C12.2233 9.67126 12.312 10.3147 12.1537 10.9195C12.0602 11.277 11.6935 11.4912 11.3347 11.398C10.9759 11.3048 10.7609 10.9394 10.8544 10.582C10.9231 10.3197 10.8852 10.0376 10.7466 9.79858C10.6081 9.55952 10.3819 9.38577 10.1196 9.31387C9.76216 9.21585 9.5521 8.84764 9.65048 8.49145Z" fill="white"/>
</g>
<defs>
<clipPath id="clip0_1348_386">
<rect width="20" height="20" fill="white"/>
</clipPath>
</defs>
</svg>
